<svg width="1280" height="800" viewBox="0 0 1280 800" xmlns="http://www.w3.org/2000/svg" fill="none">
  <rect width="1280" height="800" fill="#f6f6f4"/>
  <rect x="32" y="28" width="1216" height="74" rx="18" fill="#fff" stroke="#d8d9d4"/>
  <text x="72" y="74" fill="#1a1a1a" font-size="44" font-family="sans-serif" font-weight="700">AIGC Studio</text>
  <rect x="1080" y="36" width="132" height="56" rx="28" fill="#5f7257"/>
  <text x="1146" y="71" text-anchor="middle" fill="#fff" font-size="30" font-family="sans-serif">发布</text>

  <text x="640" y="210" text-anchor="middle" fill="#111" font-size="88" font-family="sans-serif" font-weight="700">历史短视频创作系列</text>
  <text x="640" y="288" text-anchor="middle" fill="#5e5e5a" font-size="40" font-family="sans-serif">脚本拆解 · 视觉生成 · 内容发布</text>

  <rect x="160" y="348" width="960" height="336" rx="26" fill="#ffffff" stroke="#d8d9d4"/>
  <rect x="202" y="390" width="476" height="252" rx="18" fill="#ecefed"/>
  <circle cx="440" cy="516" r="42" fill="#5f7257"/>
  <path d="M426 494L462 516L426 538V494Z" fill="#fff"/>
  <rect x="716" y="402" width="362" height="30" rx="10" fill="#e8ebe7"/>
  <rect x="716" y="450" width="336" height="22" rx="8" fill="#efefeb"/>
  <rect x="716" y="486" width="320" height="22" rx="8" fill="#efefeb"/>
  <rect x="716" y="522" width="290" height="22" rx="8" fill="#efefeb"/>
  <rect x="716" y="574" width="180" height="52" rx="14" fill="#5f7257"/>
  <text x="806" y="608" text-anchor="middle" fill="#fff" font-size="30" font-family="sans-serif" font-weight="700">查看合集</text>
</svg>
