<svg width="1280" height="800" viewBox="0 0 1280 800" xmlns="http://www.w3.org/2000/svg" fill="none">
  <rect width="1280" height="800" fill="#f3f3f1"/>
  <text x="80" y="100" fill="#9b9b95" font-size="52" font-family="sans-serif">时间记账 APP 原型</text>
  <g transform="translate(90 160)">
    <rect x="0" y="0" width="190" height="520" rx="18" fill="#fff" stroke="#d8d9d4"/>
    <rect x="24" y="60" width="142" height="24" rx="8" fill="#e9ecf6"/>
    <rect x="24" y="104" width="142" height="16" rx="8" fill="#f2dfe5"/>
    <rect x="24" y="420" width="142" height="30" rx="15" fill="#5f7257"/>
  </g>
  <g transform="translate(330 160)">
    <rect x="0" y="0" width="190" height="520" rx="18" fill="#fff" stroke="#d8d9d4"/>
    <rect x="24" y="70" width="142" height="28" rx="14" fill="#5f7257"/>
    <rect x="24" y="116" width="142" height="16" rx="8" fill="#e4ebf9"/>
    <rect x="24" y="420" width="142" height="30" rx="15" fill="#5f7257"/>
  </g>
  <g transform="translate(570 130)">
    <rect x="0" y="0" width="220" height="560" rx="34" fill="#0d0d0d"/>
    <rect x="12" y="14" width="196" height="532" rx="28" fill="#fff"/>
    <rect x="32" y="140" width="156" height="32" rx="14" fill="#f4e4e8"/>
    <rect x="32" y="440" width="156" height="40" rx="20" fill="#5f7257"/>
  </g>
  <g transform="translate(850 160)">
    <rect x="0" y="0" width="190" height="520" rx="18" fill="#fff" stroke="#d8d9d4"/>
    <circle cx="95" cy="100" r="54" fill="#edf1fb" stroke="#cbd8f5"/>
    <rect x="24" y="210" width="142" height="22" rx="11" fill="#f3dfe5"/>
    <rect x="24" y="246" width="142" height="22" rx="11" fill="#e9ecf6"/>
  </g>
</svg>
